#N canvas 39 244 758 318 10;
#X obj 133 125 autopan;
#X msg 456 139 \; n-outs 5;
#X obj 82 201 catch~ out-1;
#X obj 172 201 catch~ out-2;
#X obj 262 201 catch~ out-3;
#X obj 352 201 catch~ out-4;
#X obj 442 201 catch~ out-5;
#X obj 82 245 *~;
#X obj 82 267 dac~ 1;
#X obj 99 222 r~ master;
#X obj 172 245 *~;
#X obj 189 222 r~ master;
#X obj 172 267 dac~ 2;
#X obj 262 245 *~;
#X obj 279 222 r~ master;
#X obj 352 245 *~;
#X obj 369 222 r~ master;
#X obj 441 245 *~;
#X obj 458 222 r~ master;
#X obj 262 267 dac~ 3;
#X obj 352 267 dac~ 4;
#X obj 441 267 dac~ 5;
#X obj 605 45 vsl 15 128 0 127 0 0 empty empty empty 0 -9 0 10 -262144
-1 -1 6900 1;
#X obj 605 181 dbtorms;
#X obj 605 203 sig~;
#X obj 605 225 lop~ 5;
#X obj 605 247 s~ master;
#X obj 133 70 noise~;
#X obj 301 16 pancontrol;
#X obj 210 102 phasor~ 0.5;
#X text 478 119 press this;
#X connect 2 0 7 0;
#X connect 3 0 10 0;
#X connect 4 0 13 0;
#X connect 5 0 15 0;
#X connect 6 0 17 0;
#X connect 7 0 8 0;
#X connect 9 0 7 1;
#X connect 10 0 12 0;
#X connect 11 0 10 1;
#X connect 13 0 19 0;
#X connect 14 0 13 1;
#X connect 15 0 20 0;
#X connect 16 0 15 1;
#X connect 17 0 21 0;
#X connect 18 0 17 1;
#X connect 22 0 23 0;
#X connect 23 0 24 0;
#X connect 24 0 25 0;
#X connect 25 0 26 0;
#X connect 27 0 0 0;
#X connect 29 0 0 1;
