#N canvas 996 51 546 380 10;
#N canvas 1468 296 205 369 \$0-pan-modules 1;
#X obj 20 25 panmodule 1351 1 5;
#X obj 20 50 panmodule 1351 2 5;
#X obj 20 75 panmodule 1351 3 5;
#X obj 20 100 panmodule 1351 4 5;
#X obj 20 125 panmodule 1351 5 5;
#X restore 61 141 pd \$0-pan-modules;
#N canvas 1123 824 450 300 build-pan 0;
#X obj 129 9 inlet;
#X msg 130 222 obj 20 \$1 panmodule \$2 \$3 \$4;
#X obj 130 96 until;
#X obj 130 118 0;
#X obj 157 136 + 1;
#X msg 177 97 1;
#X obj 129 66 t f b;
#X obj 130 199 pack f f f f;
#X obj 130 155 t f b f;
#X obj 157 176 \$0;
#X obj 130 244 s pd-\$0-pan-modules;
#X obj 126 176 * 25;
#X msg 319 222 clear;
#X obj 129 31 t b f f b;
#X obj 43 76 \$0;
#X msg 42 95 \; \$1-init bang;
#X connect 0 0 13 0;
#X connect 1 0 10 0;
#X connect 2 0 3 0;
#X connect 3 0 4 0;
#X connect 3 0 8 0;
#X connect 4 0 3 1;
#X connect 5 0 3 1;
#X connect 6 0 2 0;
#X connect 6 1 5 0;
#X connect 7 0 1 0;
#X connect 8 0 11 0;
#X connect 8 1 9 0;
#X connect 8 2 7 2;
#X connect 9 0 7 1;
#X connect 11 0 7 0;
#X connect 12 0 10 0;
#X connect 13 0 14 0;
#X connect 13 1 6 0;
#X connect 13 2 7 3;
#X connect 13 3 12 0;
#X connect 14 0 15 0;
#X restore 61 119 pd build-pan;
#X obj 260 21 s~ \$0-control;
#X obj 60 22 delwrite~ \$0-audio-del 2000;
#X obj 133 290 s~ \$0-del-time;
#X obj 132 246 sig~;
#X obj 331 290 s \$0-stretch;
#X obj 226 290 s \$0-del-stretch;
#X obj 60 -2 inlet~ signal;
#X obj 260 -3 inlet~ control;
#X obj 132 268 lop~ 5;
#X obj 132 224 r del-time;
#X obj 226 223 r del-stretch;
#X obj 49 54 loadbang;
#X obj 61 75 r n-outs;
#X obj 61 97 2;
#X obj 331 223 r vol-stretch;
#X connect 5 0 10 0;
#X connect 8 0 3 0;
#X connect 9 0 2 0;
#X connect 10 0 4 0;
#X connect 11 0 5 0;
#X connect 12 0 7 0;
#X connect 13 0 15 0;
#X connect 14 0 15 0;
#X connect 15 0 1 0;
#X connect 16 0 6 0;
