#N canvas 1290 231 579 418 10;
#X obj 62 -41 r~ \$1-control;
#X obj 165 66 r \$1-stretch;
#X obj 165 88 t f;
#X obj 165 155 log;
#X obj 165 133 pow 2;
#X obj 165 110 clip 0 10;
#X obj 47 206 *~;
#X obj 62 133 cos~;
#X obj 62 186 pow~ 1;
#X obj 92 76 /;
#X obj 107 52 \$3;
#X obj 92 29 \$2;
#X obj 92 0 t b b;
#X obj 62 101 +~ 0;
#X obj 47 -61 vd~ \$1-audio-del;
#X obj -106 182 *~ -1;
#X obj -106 204 +~ 1;
#X obj 62 155 expr~ ($v1+1)/2;
#X obj -106 228 pow~ 1;
#X obj -73 205 r \$1-del-stretch;
#X obj -121 156 r~ \$1-del-time;
#X obj -121 252 *~;
#X text -104 -72 r~ \$1-control;
#X text -104 -59 r~ \$1-del-time;
#X text -114 -17 r \$1-stretch;
#X text -114 -3 r \$1-del-stretch;
#X text -104 -45 vd~ \$1-audio-del;
#X floatatom 110 100 5 0 0 0 - - -;
#X obj 47 231 throw~ out-\$2;
#X obj 92 -22 r \$1-init;
#X floatatom 175 181 5 0 0 0 - - -;
#X floatatom -57 228 5 0 0 0 - - -;
#X floatatom 123 74 5 0 0 0 - - -;
#X floatatom 136 41 5 0 0 0 - - -;
#X connect 0 0 13 0;
#X connect 1 0 2 0;
#X connect 2 0 5 0;
#X connect 3 0 8 1;
#X connect 3 0 30 0;
#X connect 4 0 3 0;
#X connect 5 0 4 0;
#X connect 6 0 28 0;
#X connect 7 0 17 0;
#X connect 8 0 6 1;
#X connect 9 0 13 1;
#X connect 9 0 27 0;
#X connect 10 0 9 1;
#X connect 10 0 32 0;
#X connect 11 0 9 0;
#X connect 11 0 33 0;
#X connect 12 0 11 0;
#X connect 12 1 10 0;
#X connect 13 0 7 0;
#X connect 14 0 6 0;
#X connect 15 0 16 0;
#X connect 16 0 18 0;
#X connect 17 0 8 0;
#X connect 17 0 15 0;
#X connect 18 0 21 1;
#X connect 19 0 18 1;
#X connect 19 0 31 0;
#X connect 20 0 21 0;
#X connect 21 0 14 0;
#X connect 29 0 12 0;
