#N canvas 490 101 441 429 10;
#X obj 135 220 r \$1;
#X obj 135 242 t a b;
#X obj 135 328 spigot 1;
#X obj 135 350 outlet;
#X msg 162 265 0;
#X obj 226 139 t f;
#X obj 90 16 inlet;
#X obj 90 38 t b a b;
#X msg 90 60 1;
#X obj 276 112 t f;
#X msg 130 62 0;
#X obj 109 95 t b a;
#X obj 136 189 s \$1;
#X obj 136 166 spigot 1;
#X msg 109 117 1;
#X text 205 10 needs feedback to open output;
#X connect 0 0 1 0;
#X connect 1 0 2 0;
#X connect 1 1 4 0;
#X connect 2 0 3 0;
#X connect 4 0 5 0;
#X connect 5 0 13 1;
#X connect 6 0 7 0;
#X connect 7 0 8 0;
#X connect 7 1 11 0;
#X connect 7 2 10 0;
#X connect 8 0 9 0;
#X connect 9 0 2 1;
#X connect 10 0 9 0;
#X connect 11 0 14 0;
#X connect 11 1 13 0;
#X connect 13 0 12 0;
#X connect 14 0 5 0;
